<?xml version="1.0" standalone="no"?>
<!DOCTYPE svg PUBLIC "-//W3C//DTD SVG 20010904//EN"
 "http://www.w3.org/TR/2001/REC-SVG-20010904/DTD/svg10.dtd">
<svg version="1.0" xmlns="http://www.w3.org/2000/svg"
 width="512.000000pt" height="512.000000pt" viewBox="0 0 512.000000 512.000000"
 preserveAspectRatio="xMidYMid meet">
<metadata>
Created by potrace 1.11, written by Peter Selinger 2001-2013
</metadata>
<g transform="translate(0.000000,512.000000) scale(0.100000,-0.100000)"
fill="#000000" stroke="none">
<path d="M2735 4888 c-89 -21 -204 -61 -265 -91 -97 -48 -219 -171 -264 -267
-47 -99 -66 -176 -73 -285 -3 -49 0 -628 7 -1285 14 -1355 18 -1272 -66 -1448
-105 -219 -329 -355 -584 -356 -292 -1 -585 207 -672 477 -32 99 -31 300 1
395 38 117 92 211 162 286 77 81 153 131 252 163 67 22 84 23 408 23 l339 0 0
341 0 340 -407 -3 c-271 -3 -418 -8 -438 -15 -16 -6 -73 -25 -125 -42 -113
-36 -234 -93 -328 -156 -296 -194 -475 -468 -552 -845 -31 -149 -39 -430 -16
-555 55 -296 211 -561 444 -756 207 -173 452 -286 737 -341 92 -17 387 -17
480 0 456 87 791 374 962 822 24 64 47 135 74 235 16 56 15 20 12 2083 l-3
1292 -22 -1 c-13 -1 -41 -6 -63 -11z"/>
<path d="M4060 4855 c-555 -138 -929 -521 -1029 -1053 -10 -54 -22 -164 -25
-247 -8 -173 11 -2052 23 -2380 10 -231 20 -284 73 -390 50 -98 158 -204 260
-256 66 -34 191 -70 265 -76 l73 -6 -1 439 c0 241 -4 966 -8 1609 l-8 1170 23
64 c65 175 191 317 348 395 95 46 174 64 341 75 159 11 231 31 323 90 111 72
194 176 249 313 27 67 63 205 63 242 l0 23 -272 6 c-477 12 -590 9 -698 -18z"/>
<path d="M3850 2835 l0 -335 258 0 c278 0 322 6 428 56 63 30 148 104 200 175
61 83 121 250 139 387 l7 52 -516 0 -516 0 0 -335z"/>
</g>
</svg>
